<mxfile host="app.diagrams.net" modified="2024-01-05T19:34:51.382Z" agent="Mozilla/5.0 (Windows NT 10.0; Win64; x64) AppleWebKit/537.36 (KHTML, like Gecko) Chrome/120.0.0.0 Safari/537.36" etag="RiSNIYl84Co7ipu3nMvV" version="22.1.16" type="github">
  <diagram name="PÃ¡gina-1" id="N-qxvUCVDJfjWK4Xd3Dr">
    <mxGraphModel dx="731" dy="494" grid="1" gridSize="10" guides="1" tooltips="1" connect="1" arrows="1" fold="1" page="1" pageScale="1" pageWidth="827" pageHeight="1169" math="0" shadow="0">
      <root>
        <mxCell id="0" />
        <mxCell id="1" parent="0" />
        <mxCell id="SIxx5Mf0WEB-HI0rlTFU-19" style="edgeStyle=orthogonalEdgeStyle;rounded=0;orthogonalLoop=1;jettySize=auto;html=1;entryX=0;entryY=0.5;entryDx=0;entryDy=0;" edge="1" parent="1" source="SIxx5Mf0WEB-HI0rlTFU-1" target="SIxx5Mf0WEB-HI0rlTFU-5">
          <mxGeometry relative="1" as="geometry" />
        </mxCell>
        <mxCell id="SIxx5Mf0WEB-HI0rlTFU-1" value="" style="swimlane;startSize=0;fillColor=#E6E6E6;strokeColor=#23445d;" vertex="1" parent="1">
          <mxGeometry x="20" y="80" width="80" height="340" as="geometry" />
        </mxCell>
        <mxCell id="SIxx5Mf0WEB-HI0rlTFU-2" value="" style="image;sketch=0;aspect=fixed;html=1;points=[];align=center;fontSize=12;image=img/lib/mscae/SAP_HANA_on_Azure.svg;" vertex="1" parent="SIxx5Mf0WEB-HI0rlTFU-1">
          <mxGeometry x="15" y="90" width="60" height="30" as="geometry" />
        </mxCell>
        <mxCell id="SIxx5Mf0WEB-HI0rlTFU-3" value="" style="shape=image;html=1;verticalAlign=top;verticalLabelPosition=bottom;labelBackgroundColor=#ffffff;imageAspect=0;aspect=fixed;image=https://cdn3.iconfinder.com/data/icons/brands-applications/512/Excel_D-128.png" vertex="1" parent="SIxx5Mf0WEB-HI0rlTFU-1">
          <mxGeometry x="15" y="170" width="50" height="50" as="geometry" />
        </mxCell>
        <mxCell id="SIxx5Mf0WEB-HI0rlTFU-4" value="Source" style="text;html=1;strokeColor=none;fillColor=none;align=center;verticalAlign=middle;whiteSpace=wrap;rounded=0;fontStyle=1" vertex="1" parent="SIxx5Mf0WEB-HI0rlTFU-1">
          <mxGeometry x="10" width="60" height="30" as="geometry" />
        </mxCell>
        <mxCell id="SIxx5Mf0WEB-HI0rlTFU-37" style="edgeStyle=orthogonalEdgeStyle;rounded=0;orthogonalLoop=1;jettySize=auto;html=1;entryX=0;entryY=0.5;entryDx=0;entryDy=0;" edge="1" parent="1" source="SIxx5Mf0WEB-HI0rlTFU-5" target="SIxx5Mf0WEB-HI0rlTFU-20">
          <mxGeometry relative="1" as="geometry">
            <Array as="points">
              <mxPoint x="160" y="470" />
            </Array>
          </mxGeometry>
        </mxCell>
        <mxCell id="SIxx5Mf0WEB-HI0rlTFU-5" value="" style="swimlane;startSize=0;fillColor=#E6E6E6;strokeColor=#23445d;" vertex="1" parent="1">
          <mxGeometry x="140" y="80" width="80" height="180" as="geometry" />
        </mxCell>
        <mxCell id="SIxx5Mf0WEB-HI0rlTFU-8" value="Ingest" style="text;html=1;strokeColor=none;fillColor=none;align=center;verticalAlign=middle;whiteSpace=wrap;rounded=0;fontStyle=1" vertex="1" parent="SIxx5Mf0WEB-HI0rlTFU-5">
          <mxGeometry x="10" width="60" height="30" as="geometry" />
        </mxCell>
        <mxCell id="SIxx5Mf0WEB-HI0rlTFU-9" value="" style="image;aspect=fixed;html=1;points=[];align=center;fontSize=12;image=img/lib/azure2/databases/Data_Factory.svg;" vertex="1" parent="SIxx5Mf0WEB-HI0rlTFU-5">
          <mxGeometry x="18" y="70" width="44" height="44" as="geometry" />
        </mxCell>
        <mxCell id="SIxx5Mf0WEB-HI0rlTFU-34" value="Data Factory" style="text;html=1;strokeColor=none;fillColor=none;align=center;verticalAlign=middle;whiteSpace=wrap;rounded=0;fontStyle=0" vertex="1" parent="SIxx5Mf0WEB-HI0rlTFU-5">
          <mxGeometry x="10" y="114" width="60" height="30" as="geometry" />
        </mxCell>
        <mxCell id="SIxx5Mf0WEB-HI0rlTFU-10" style="edgeStyle=orthogonalEdgeStyle;rounded=0;orthogonalLoop=1;jettySize=auto;html=1;exitX=0.5;exitY=1;exitDx=0;exitDy=0;" edge="1" parent="1" source="SIxx5Mf0WEB-HI0rlTFU-5" target="SIxx5Mf0WEB-HI0rlTFU-5">
          <mxGeometry relative="1" as="geometry" />
        </mxCell>
        <mxCell id="SIxx5Mf0WEB-HI0rlTFU-12" style="edgeStyle=orthogonalEdgeStyle;rounded=0;orthogonalLoop=1;jettySize=auto;html=1;exitX=0.5;exitY=1;exitDx=0;exitDy=0;" edge="1" parent="1" source="SIxx5Mf0WEB-HI0rlTFU-5" target="SIxx5Mf0WEB-HI0rlTFU-5">
          <mxGeometry relative="1" as="geometry" />
        </mxCell>
        <mxCell id="SIxx5Mf0WEB-HI0rlTFU-67" value="" style="group" vertex="1" connectable="0" parent="1">
          <mxGeometry x="190" y="320" width="410" height="60" as="geometry" />
        </mxCell>
        <mxCell id="SIxx5Mf0WEB-HI0rlTFU-65" value="" style="rounded=0;whiteSpace=wrap;html=1;" vertex="1" parent="SIxx5Mf0WEB-HI0rlTFU-67">
          <mxGeometry width="410" height="60" as="geometry" />
        </mxCell>
        <mxCell id="SIxx5Mf0WEB-HI0rlTFU-58" value="" style="group" vertex="1" connectable="0" parent="SIxx5Mf0WEB-HI0rlTFU-67">
          <mxGeometry x="46" y="7.5" width="70" height="45" as="geometry" />
        </mxCell>
        <mxCell id="SIxx5Mf0WEB-HI0rlTFU-38" value="" style="shape=datastore;whiteSpace=wrap;html=1;noLabel=1;strokeColor=#0000CC;" vertex="1" parent="SIxx5Mf0WEB-HI0rlTFU-58">
          <mxGeometry width="70" height="45" as="geometry" />
        </mxCell>
        <mxCell id="SIxx5Mf0WEB-HI0rlTFU-39" value="Bronze" style="text;html=1;strokeColor=none;fillColor=none;align=center;verticalAlign=middle;whiteSpace=wrap;rounded=0;fontStyle=0" vertex="1" parent="SIxx5Mf0WEB-HI0rlTFU-58">
          <mxGeometry x="5" y="25" width="60" height="20" as="geometry" />
        </mxCell>
        <mxCell id="SIxx5Mf0WEB-HI0rlTFU-63" style="rounded=0;orthogonalLoop=1;jettySize=auto;html=1;dashed=1;entryX=0;entryY=0.5;entryDx=0;entryDy=0;fillColor=#b1ddf0;strokeColor=#0000CC;" edge="1" parent="SIxx5Mf0WEB-HI0rlTFU-67" source="SIxx5Mf0WEB-HI0rlTFU-38" target="SIxx5Mf0WEB-HI0rlTFU-59">
          <mxGeometry relative="1" as="geometry">
            <mxPoint x="245" y="40" as="targetPoint" />
          </mxGeometry>
        </mxCell>
        <mxCell id="SIxx5Mf0WEB-HI0rlTFU-64" value="" style="group" vertex="1" connectable="0" parent="SIxx5Mf0WEB-HI0rlTFU-67">
          <mxGeometry x="300" y="7.5" width="69.99999999999994" height="45" as="geometry" />
        </mxCell>
        <mxCell id="SIxx5Mf0WEB-HI0rlTFU-59" value="" style="shape=datastore;whiteSpace=wrap;html=1;noLabel=1;strokeColor=#0000CC;" vertex="1" parent="SIxx5Mf0WEB-HI0rlTFU-64">
          <mxGeometry width="70" height="45" as="geometry" />
        </mxCell>
        <mxCell id="SIxx5Mf0WEB-HI0rlTFU-60" value="Gold" style="text;html=1;strokeColor=none;fillColor=none;align=center;verticalAlign=middle;whiteSpace=wrap;rounded=0;fontStyle=0" vertex="1" parent="SIxx5Mf0WEB-HI0rlTFU-64">
          <mxGeometry x="4.920000000000016" y="25" width="60" height="20" as="geometry" />
        </mxCell>
        <mxCell id="SIxx5Mf0WEB-HI0rlTFU-76" value="Store" style="text;html=1;strokeColor=none;fillColor=none;align=center;verticalAlign=middle;whiteSpace=wrap;rounded=0;fontStyle=1" vertex="1" parent="SIxx5Mf0WEB-HI0rlTFU-67">
          <mxGeometry x="164" width="60" height="30" as="geometry" />
        </mxCell>
        <mxCell id="SIxx5Mf0WEB-HI0rlTFU-66" value="" style="group" vertex="1" connectable="0" parent="1">
          <mxGeometry x="179" y="420" width="420" height="100" as="geometry" />
        </mxCell>
        <mxCell id="SIxx5Mf0WEB-HI0rlTFU-20" value="" style="rounded=0;whiteSpace=wrap;html=1;" vertex="1" parent="SIxx5Mf0WEB-HI0rlTFU-66">
          <mxGeometry width="420" height="100" as="geometry" />
        </mxCell>
        <mxCell id="SIxx5Mf0WEB-HI0rlTFU-21" value="" style="image;aspect=fixed;html=1;points=[];align=center;fontSize=12;image=img/lib/azure2/databases/Data_Factory.svg;" vertex="1" parent="SIxx5Mf0WEB-HI0rlTFU-66">
          <mxGeometry x="46" y="16" width="54" height="54" as="geometry" />
        </mxCell>
        <mxCell id="SIxx5Mf0WEB-HI0rlTFU-22" value="" style="image;aspect=fixed;html=1;points=[];align=center;fontSize=12;image=img/lib/azure2/analytics/Azure_Databricks.svg;" vertex="1" parent="SIxx5Mf0WEB-HI0rlTFU-66">
          <mxGeometry x="177.60000000000002" y="24.660000000000025" width="42.8" height="46.34" as="geometry" />
        </mxCell>
        <mxCell id="SIxx5Mf0WEB-HI0rlTFU-27" value="" style="shape=image;imageAspect=0;aspect=fixed;verticalLabelPosition=bottom;verticalAlign=top;image=data:image/png,iVBORw0KGgoAAAANSUhEUgAAAT4AAACbCAIAAAB0/GCOAAAAAXNSR0IArs4c6QAAAARnQU1BAACxjwv8YQUAAAAJcEhZcwAAFiUAABYlAUlSJPAAACiLSURBVHhe7Z1NjGVHdcdnkQ1SRkQOCZoAIbBAEQvLCyTkmEhERggkvHKUkA0aFubDAbXCZJAHGTCypVkkxF6xGDnBjiWSCFljIYLExjargVVkLEstj8aDrOmMLdpWXpi0Nc10d37n/KvOrXff6+7X7f54t/v8deZOvbqnPm7d869zqu59r09sJBKJASKpm0gMEkndRGKQSOomEoNEUjeRGCSSuonEIJHUTSQGiaRuIjFIJHUTiUEiqZtIDBJJ3URikEjqJhKDRFI3kRgkkrqJxCCR1E0kBomkbiIxSCR1E4lBIqmbSAwSSd1EYpBI6iYSg0RSN5EYJJK6icQgkdRNJAaJpG5iXrGu/9b0X0X7sXfqeCGpm5hH3OIf1F33xMbqxsrS6LkL154899rTD9144ZmNmyPL1kkj8FrVPEZI6ibmE6smTsibV37y8tc+fPULJ5buP/Hal08snj5x9dF7N5YXC6s3Vi2xzuF4kTepm5hPrDkR19avX3r5q+95feHE0tl3/fffv+v6372b9JUvnbj88N0bo6VQc+oer/g5qZuYVxAwryzhYPG0187+flDX2HvmJE74jafONi43A+ZEYh7gbGRZS3gMbyHt62dug7Eutzl7b+OUrXsN1fceJ8eb1E3MJyDhyutPLOBd8boQVQTWEepyJN/C5pWl6m9Z985CXWd42b4uGKLHTuom5hO3Nm6OYKY729uq17WE0nCY46unTyxf/EfXBjNRF01Tbp88+TrZa1Bx5/bcI6mbmE+s/fYV36A6cxKustDF03KUKFNMRgfNQshZ4M+cWqllYf6thsDzjqRuYh4BhVjHEi3DT21QIfK02qlSDkLYbM+Kbo52SF3U5WmDt77jNRCXC5K6iTnFm89fgLqQE7rKweJsl+43Mgd1lY/a6LkLs1Ku72wF461/NMfb5M8vkrqJ+cSa9qjc09qushh74wf3XflSYS+ixOsLJ14688GN5cVSdEtUWsJze0mLYBvaX3/8PoQWmS/eeuutojLfSOom5gn4wxKyrrzyrY/iY7WydZaeFD8Jj+WNEbGXBJpXvvdFSnktcr/uPvuvahS6vvH8k3BVL2m9eto2sZkRlP7V+Y/7yx7Ae1K6NHdI6ibmAQ03RLaVJfytXCui2BgyQ06It3i6PC7S6ldnIZ4/5jW+OWuLGJ+drjd+8UP86i/P3v7yV9+DMnRV+C1Rc0wQ2rUuBUVdf8g8b0jqJuYA5tmAezkHTINdIq2OMO3ak+f85BoJCBak5SgFc8srcpiwbgUXDV3xrnAepyq/ilqPtGoC964jpy5/97P+DQcxdh5dLkjqJuYAhbqxV7TB+hOaBS1JwFWiXE6ZwspShNPuKm0XGqHI6OKDrFehK3EvzlnBMIvhqAp9Sa3ZFtKUjbPo+yuWK9bQHH8hKambmBPg3Drqvvb0QzBTtHSCWTz8f//1n37S1EiL20S/UuAIA8O1RvFgafCTTIlOwV6iZc66/kkIT+XirYfKLJi92TlDUjcxJ7Bv/4i3eDxCVlyluGe8ut+2mm0P2enkaqu4VliKDqyT8zQe+neMxEMxk4KiK0fE9Gu0jBpnpSChQtvu0lPiQt05RVI3cUgIV2YM4b/yQNW4srxIPAwbRV0YBdmWz9/p60+9R+GvT6wsvbTwvgiGcb+IGOuZ3RtXEtJ4Y8gpYnNUvhKcRV7+2oc3Rv5SdOmVMI/L3aRu4qDREcN82mrJadeWy4t6eCtGyU/aK1NirL+xaP9v3Bo9+5hrdl8nEhuVllCWFS9HiM2MwGL4f7//NxBYamrCjgsnmAh++8qlud2X6iGpmzh42FuH/Af/QqBu5LDUFHWDWrbb9PRDplXKGrus1M0RobUCYCnjQknDQzlY5PK5u15/YgGSr1+HlvZsCdfKWZQ73p45CbFvvPCM1Tnmb+cXSd3EQaPQo0MscdcIVuHPrx/7TLCRhSi8grqxR1X0nWAkjIr+MxqIOWcWq186YfH2Ews3fvFD86L+Q1Zqgo+4VnhLtVReeH7mNoqgjI6rpddNJKYDbug9JwfUWl588/kLkA1/CItEV7lEpclcWcRnQlcrWEqWxMr1H51fPG10vf74fdRT6WpvU7iCeXij+vIiHliTAtVCYNhLGrb7K9CubHOKv4kx90jqJg4K1dM6neCGxa72/PbRe3GbkNNI5dtLCn2dtGV7GVqWdy2qs/U0/9vq96233jK6oiDGVh9b1LSzNVq6+sg90BWhWpoQb2nXQ/G6irZOkkzqJo4j5FRFM2ggJlQyjJYIfWELbIQ25ZWJus+k9adIZaT1hzco+B7VirvcUo1BTRSU78qrPfe0xdnaR/+NK9rSjKAmOJIzuvigu1kvZJ0UeweApG5iLyH++P9IEKl7J1Fv/CPuYG2dKboi+ihScTQC+wq27lFV8m8Nmyw0U5QO4Ir1BFiVW7V1fWszQnlxcnhI6ib2FMUxmvsSaW+88Iwx1t/493UmDlZi/AmBrrFphOBpoRalLj98t/F2B1/oq4ytVI8XnjUpKEFn7HetfnPZNQeJpG5iL+FMMNJaYrR05XtfXPRnqvKx4idConOt1fGSQBN9GKsNJ3uc0+wPz4AgrSYOexeaCmmdRqMt5oXL5+4qvDUvPUgkdRN7CeeB02Zl6VfnP64wFbYEY/kYjHUxDwxj0dQTHXsIZF+X7Z4YeUIx8LbQI98yd0B+eKt5gRZ1hLe/PHu7bWuV3s5S7TwiqZvYSzgZ7OWK6z86T5gKVVrSisZKQ1dC4pcW3gfDUTYu6Q1EYCH32PPbuoLdFh1vCdTl8NumOeLSy7cLvLOeGCSSuom9hbZ2V6/6Xy2Qr9OmrgQawx9ybvzgPvsSH4tYf6IjvpXd3fo8tmQWD7w9dVUDR3gLReFtuHdP2PPhG7/4YVehmhsmkrqJvQUEW4ONtr3kLxuKOUFdz7Ev2cHtGhsHRc1n4mC7NDB2eZ0m26AUHC3p1Qs155OFveBBTD569jE1Z/BVbkkPEEndxF4iWDe6+KD2dcXbyYWuAmaWnW88dba8UCGuGqoTthz+p0IdZ4E9pGXNTOsNda0btOgPmaiKarWEVnqQSOom9hT2cMjc5vr1SzBTjhcfG/wRl4LJr9fvCeCl7e8Y2EOg6mwlkZ4BtCuhHgJmbWszU6hFGiLTN6iara/cYU4kDMYxRaRrbz5/QezVmhPywGHfUu5CaJHKMhfKNweuP36fLUd/cxn/6fVE/Ly91zVN64AVjH0yNUcr1ofy5UHVbEdPDBJJ3cSeA46JvauQ8KUzH4SQerKq/SrRibREvCLhHLawFg7jHo3A7sOtptm8bvWi3vrKEtG4eEuLCE3TCp3xLyFFJ4e6WXUQ1GWAfIz8sHPU4gZPxOzrM/Ehj3vpzOh/3nzxxRf/49//7Z+++w/f+eY3OJK+cuVK83vc0e0jDd/g9dukl4HXiF1ZYUJFCCmXK38rOvFR7CWtBGok8JnNsyJVOXUAFfoKepFLhLTDG88/ae9jeItqi4RNDY/cUxyv6w/01uwjdevQWAJZWbx05XtffOOps68/sbC1oMPNHj13wWZHX/xYVTbEkRBjfYpV4iBBixJL3/rpT378+dOf+4Pf+90T0/CRO26HxhB7oPbx9lFu2fIiN5QFrUJonHBwVYziSD5Ms5+GsptOuTUmPqY/Ul5JH57JweaIomM3BfOwGNs+rizRIlzVZKGGEALpG/rDvEU/qTuOOpSMi02NxD96RL6tMO/qyG222frRey128jnY6rQtRHuEoDvkYPQPECLtxsbPf/7zT3/qE/DzHSdO/PGpP/zAe0+9/4/ejShBDkdRmpyfPf9cKXbc0PlhezVSrzSLwNxl6EScrNv9yrc+aje6LETXrl27xpz4wANf95JboAuSVdAzZRurNCc3rrWuqEvCvkVoz5NroQHiYKhrA8RdYRAVt4RoKLcQm5gXbDJ+5dufjPtaBttumNIl48CAN8CXwsl3vuN3oGVLWkSkDfYiIjAhdCl/vCADCGoB/6buxQdZBmuaZoK2xza2NWXEY3j/9V/+mbFtBk2EHIdirvL+hk/oduyY7Cgvh8jYZHXQGMdLFNB0aXjY57VuGVa7eRCPubal5daisWaUlWb0GW77/Xt/9mDVjjneA4H7W6JfvAFWJU/7JzD21JiQI8aGiM/Hk73lBpVJ3MOluIOjJfiDE/ZfjSqhE7HMn//ZX2h4OW4RrVgNQV2fx8XYEN0vpglb8S6Y7WFIJVBfOGE//ri86MWmzQtzj4OgrkZHXlfT3tYi6oYwK0NgXxfZz1vbL9PHz+Ra3Qe1U+VWgkP467/6S0wqvOskdZGWt6EjW8Q0vbpBmssuULkBM+uq0r1iPWVQggiZ8Jghwt8yYgwXK5EXX3zRzvng91BqtvwV+/NfPzpvmyP2aodCboFk+aOB2FIYGEdzvPY9+zJlDA77Sl27T4ycxjGoG0uOSMu1KqFJ0c/ad0q0StGIm/jTP4U69XZqJ3MSqMhc6j2ejnirRuZV+uyJXhHLkW3BRsXG8roSTI3AmARnSeusqFso/d5TKHDERkuV20PdCDkoTB/SXcFuEyNa46PuPUdtMZa2fvqTH//phz7E2NrQ1bEix3f4JlC7RymEBCbBtI5tXD53l74waK9e2GrWvguBd8XHyvHKxtyc7FcgfUsMFAewya2fR+w3dX1EfFAqdcsvD0k0iPhV4mEkth/J5FSrWajrygp1zCCsZuebh2FjUm6ADIbEtMnV1Vwj7Ml7a9WqnprpIHiTvxU546ilLMeP3HE7Z5UupBXDnbpS+8pX/nYnG86otXI0wVzWDhqiefBjd91ZNNprd3MCxC+UYlVMGn8rxyALwaNiS5cfvtte8HjhGawFB2sKzl4J1mU5TywUL+3VVjMYwFAfMnUZaPwq4xsPja4+ei8j/tLC+xh6zraaIZyqf0aRyvl/bIWDeL6JpV1BedOg+1RWX17WcjxR0koRKn/6U58glsOqzDN4wMwRC8M5sIiVf0ANhmvnOaiLKyb2Q1Muoq02AURCDVSwl6FmbVI0xobL0ioCmAq5WfhY7aTUkA07OSl/gDfGuy6fv1POgHypWXrBGE7Zeut15DCAu7P/1AWbU5cJ0v4Ssa1P0PTQlyAH8ef4EBiFlrSI35iT8VTdx1oN9USk1dkarY2jFI8FudxsKwavqtpKsDF4y3FaALyKSUkfTRJYYVGzXiGl2rmBBq0nBwRmNIaIkQzekhYti8Z4Z1gAM/LI+0+dItJhusSEXvG//Sd+wkxxWPxUHFc+1mWajhbr2d/Ujh1pcKDXvmscMnX5aE/Y2j8iLhY59K3LlrQS7hA3Bnq7ZjPmk4jNzClq7lqtb+GT1QGEHHvY4GWsS0BPg1rbknkpYOtj/Za8NAqAsr2J4O2i1LaH2KOO7QrELIwS48k0FyNMTjO23j2/6itXrqBpvEXtlC1GfE60vzA2OdEjQeMQERhh3UsRW3+t1De3wN6P7b7gMKnr+08ddRk7ietrk9B+HdtL2UCrlNKKc/SGFvH2pNBcrUoudzJmtu5Rg/QVrkv4iB2U3+yuwG3aU9y6e4z1yLxqDAzC+n3tvbGGc8An1C3lnYHwGxul8u988xvIAw98Xe9XkoOlmp/ZO1AbdRLnU7/aUnMwij5M3yjaIWhiEuXcxLQoIad5MlTGln4ypNqCtuj6lM2eGmFWs7ZR4lubMhUlgrqcwuRkQu2Rs9UNYDDa4BgADt/r2g98yeui5sGk/SscvgU/fY609QlCWjuEVEWFFGQl43OtLWxIQGmOpFkwu+cE06NlxwprbG1pUEoFVVW39+idx84+dtedzPTtYgxhBVvWY3bLaadeckB2sL01xFjdwhChjbZbAzSEBOgMHmm3pOo6CTOhDbWVeh29tugJOmiqyI5AD+E/cS8BCK2EQD8Lhu2Om1qZFhuvq1VGeTJksHsIbylL39DkRmjNgpqcM/agTea4j2FmiEgr0SnZIbG0/hZ+MTkO29+sucBhblP1vK6j6Psgunn5GkYbgyKt7oHehmGgrz56L7fK7kGEQP4wSdwrNwNMvR83R/7lkjIZU7lmYm68vhpmOiq4fgvjg7ptRCcJ03l7sIvFyWCaRhdtt54ae0lL9spH+sBZdDB3a9qmjB3B2oIVEKZrqzKh15bypYYr7iaLelv7qJlMdhCeHqosCVoJISfWsWjCZPUhRNfokbDu3ypqZfOPYalCP8kp47+ytH790pv+J+2xGWiMkWiVK5OL+6u0EujYez4WlNX10Y7H83Awp9T1sj7/+U+lcAMoJYJJqMqpa+thr3bsYRIJMu2nj4C3PhXalqQs3aAUCdGe20lv7QY2ZfVEF1sJ88K4+SjLfpuvSeHTRCRMvLNLf7wpO1aLJBAy1a6ahu0y8RkB/XQtIKpVIj6qlTbE4CP6HJsgdlNwObBR9au3SKRJcApiS5n+cNVqVG0h8JbripmCxGa8pR7uVCs25y4vYhivPf3Q1UfuYRLHGJjfZSQyD8Sm7PvtBds6xcNeNz+zvQFgHqnr40hiOnV90MufeDLNlSU9bVe1zsP6Rrt5ToOpTZtKubXVY5cFknVpoUTLvVLaSpH9tUfZHKeaRe/OQEE5IrPdxjRNKm2UCPtWjtIEkMS0Mwa0OFs5dlUYlSBtnZP5EvWzXGkzr7WgJxSBjRwR6lECiXqoJCY79Nv+SJPinz/9OSngb/XmaW9wyKn89zWR9Uf7i7YB6XfOfiWLCVquGDthUiakQpiyucuXv/vZ+mvMdq9rJUldG4IdU7cOenlUC4WMmU2poC4VmuLGButV7gSnxFsS8FBsVM1e4cT98EkB6no3bK9C9ZPDbS7hU0fdNSZ+TArblS2GqcnEOWJJs3ikHgj2KFh4Mm6aSMn3+mXTbdPK54ih4+WKj/LR7sMz6R48F6naStqP0QqiRqMPErG3WYWOQdEvTbRFqIQj9Uhw5tQQu3dMBHyUjtpFyGHBL4VteCuyaaIPMXDHm0c+KPj3lkbPPja6+CDzPpSG567gTyWLzwBJXRuCnVJXw2dbPp4obz5LP/wqR1YyDL3prJe/sOqnLO6lWo6I4l6rxjBxP5o/na7pQIQnk1LUrMor7FpEMwxLNh2mGUbJ2R35XoyPIlabv27Vs04IwNkW0CYalagzJDhLSOm1Tlqe5Yghaqtdx+pCRMgWkFw194RMlCkV0WyLuKLQV1tqhXw7dcpmwCiuIii0Qo6YqcfjvcGJswWyMd0sP+r2dTdxPJMB6dI2O1dD7V7FGQAOnrplvSGxxUahLsqMm0U7Ppo+X64s6WEdRYKQ1IAoprV6qfzmiCWN1KJyEsRFvgNROuAoz3I5Mu/SH9TUpUJdfaFEU0lXijQl7JvfrEi1wxnW2dJABNievV5zRODUIOqGgZIPb6EiBoqrlJDWei/cprqhNLJF0zhJzoo56rD6T1kuBxBF4+VoBWcItC3MWU6pcikrQVnyq1fsZgrYSH7UzJG2EA0LDUkAZxlMlaUe5UhUlhyuRacYENUpIafy1g3MDGb8ZgXckFwqJ4umZyrtBctZq60m5x6HSV2xqzwcKuFK82To5sjei/QiUUoEhmBWSt8fslbsN8TEQzvrjpRjNy90W9axnllhJawVcvRHNdOozSDebS9V4Vdx7do1DFFuJ4xJgnmRKbOGA15mEprdywIPZSvlpBWjZOWYrK1dzfJ6WINXIrCsWUeEpikLA7tS3hCAUdrCVRMSNU09hKPU6UTqwdYIhTxVX2XjMnuOl6smsx0Z9YqlODxk+mih20Ep5gjNhm1B6lecHJlqnZzJKeN4Yj68rn3HmonQcXO0fv0Syq98+5MQW/qoiZBQl4/UI3fqRuoFl+3HO1FDQatW9BGiX/8NMalZHI5YKddX5dEfRctVX5hiHzLQsONWsDPyRb9N2evfHIRjWhCiD6Pkb7FgrNzNWphunRTXFrFaVNPUQ5pMeFj0KqTcdjg66V56Gw4oOujxSm2NRa3jb1ZIRw1N3wCvgQwzEToo95pgfDgiyhlvscyAxxn7T12wOXX1kXCXwJijJR6+G+65pn3pT8pSC5eraNkYWO4fraxSA1RHQfRW/ZDZfn7BEDsWRt0bLzxjD/0qdRHS1PzLs7e3C+8p9uE+DYvHjGSdrbXJzpRAYTP2tmSQySLwtnkcoqHz0ZuK9VvxGkN0AKHa6pQKmAjIDAW1BVWQZo7YBu2DsbhMhfRtJ1Hr+U8+xkZxh+6umWNntpqkroScGFI64LzdfEyOGQ6ZuqThW098u8jUtG9kDOwWuiflcp2H4dLN8b75vK1dpa+ypk9o/fDdCq0l3qVVomJYrTpRRmjRfLuiZaFUPh2iX9hxKzLBzejRGavHySrOR2La6p1mss4IuaNd0tAJSrfRrxbnESqLDORMOuctoGWC2ooWSSCdR123tuy66mTE2cq3cZRRtcvkKugMmiqimlvRKV1XlEqAw6cuOSRgmiTORj7H4m89oDUqlp/59FA5vmCwvKhvGqkGVaUi/hgAaK/C/iaNHjihhqCmbihaNh3rsHd+c+qCsec649amBAaHI3UidQZXdqf0xkV9I5qczZfHmwKHFrSU6cMcao4laLhcTtErdayj05ZX14NWpOptNEdVMTfRqFbUOiU1FLhePy9jaEfVxkSrD1sybEJdhHx6jtouhugI4/ADZuXANKVhFEdxVYxC/Ky9Whx/GbWp3PnoR3xmOO0ImyGk/UWM4O3GLX0tW5OCWvGe+NvU3U/n1Pq3RPhemZdMLbjEkbM9tyO+SU2aMLxElTvgkvWtzAK1rTDx8ITxNIuz0Ul8fnB7dmiNQD1RFUJOeO8uCvBNcumQU/mm8QwpiEuQqIeWPmXvcml8yCGhSaFcmm768cbhbFOJLRKRE6bZ7q6zNHgbQj5lf3X+4+vX/VnuBJQJJyEqNYzXf9JediuvWPBvNV6iQqxdd+9WUE+S1OeZEevesL8QDI58bC64BGcUH4YOaYr7dtFsKONpVxN0wqbb2qp9l9f62+Y4OyWCnQHtmlkV9qhbFJqnrwg5k0uGlrrawRZFVbPYq/Ah8qM5D5u5du7RVEM4Rjhk6oqoYqxE3pIcY/KCvXpKKSLh+Dn8yTvmOX47R/aX1CmlyhHqoYbuITC4Ofr1Y5/BOdup5k9ptHG1H2eDX1r43rCzVjhV3o9vCNAqY6Y7cINlPK2TijapoaUuXBV1qRPr7/UK/d2FnXKqmoyiOXKCuiSsM+PU3cTDdyOsGKTtP0cGhBHj2Ou82Fuj/aTuPmJ76kpglwRGoSOBSzD26iP32NcMjHi631Om20pd86t4VCpRtVrNipb+VQSPmZf1WKj8BQ2oS4Ii9ozKfoVs5xhnb1ihTA1ptljGIlgJBuoPY3V+BpTxtEvpRZtRm7apNE3QVhCARBB7p+jtipFAyCFfCrq0lrfl0qagoy4KqKlORL1VJ0uFtblIkJmLXnDI1OUjRLru33SPn6eCftD1hv8aWKFTMdb6TswUlAe2eM7F+mdmdKQtJgV70dzXsXhvmBynpGZvpZdnSAHvfGNkW8EvEG8QphaCLWKaH7njdtfr3hwKBc76I5aZUcbTRoLaYusIm6ZaPsaX6eQG5SdDh+Z2sdAFmggUwar/ajFq0xuLPepucmllVJli4smQekhCw2XVesCvOj/QvLyJAk1LwaDj8cMhUBfpqLsQL0KaLTozG36WsmSYR9XZ8v8YLLMorCzhqBUz0xBOlbZwqhYzWyurdrbuLUvQUbQ8Xq933mQ7VNOZNEQZNznkyxP29mkRWWpUsj3KmNjLDO06Vo1i6BGcK5zuUXfXXrfEw/WiSNBzY2YNgrSubqmLfswj4yij2vPkiIYrAgcp9KiLDpkWyMw+aEcRh+N1gzYNdaeiCY/LfZrqeCPTEsTG8bpFtELT9prUaMk+usuNhPXh258se8tjIMP778DtyJ62QHG8jfkiskWryu2bj9ifGSJn/QiZOzrNbI6KluPxUth0VCWykdlyg5wSbeq+hExBzFx21JYY3UZEXYgar1swMpOhL/oxj4xD1U6JCyjFaES1oGzF1S0rTRwcydzdftuRwSFQV7Sp5Jn4vu4uUQoa/ZYXFTMj2qwmQdP6npefKgtdjtAbnjdPj1qoTvuJKYwJW4l13WaQnZllN9SNIJYYr3vy2XwVhiLw0MqLQtOJVKBOwk9ZsAw6jD4W1SB8Wugg5BRPuH1bNOUvjTo0K9FtRPzhY7y5RX+4EPKjIbW19aK0DFcz+2g0ei+ElbC5zhoIabH3OC96D426lVR7RF2cc1jhzZG+b0Rb2kAmwUf7luazj6kPEp1qvz84jjWsX0s4WAF6JjUJLWWDkxJy5HyoTSGumX5DXTJxWWXRuBWXCnBxsmaMuEfLaso2jKgRqPfoJDUmI1cDfo+mD7vlMyyKNcpWsAeuIg/1lBmn8fDRiqjVNDQF2ohqL0HDBaWLhoORIV9TntRIIORssoN9LHB0vK77h2KFesALXUVOhPTVR++NH7LSEyk7Syz9yD0lWu5o05EWYCtGNvcz2GhRmUB4ObOwhrowk1MojC0XK3VlheT3l4WbcBhLDd7KjiU9lytQp/GtsXiaxuLLPhCw9Yhuk4/fOCAtk5Hox+TChdBtOUn1OZgZ4TT5ao6GuLpN1tXlLmuEJ6k7Ocjtuj0uByHToutpnT/yOEzqOn/2yuvqaLfQ/o2W7PfiymaVbUrR7vL5O1/+2oeJkHHFbSCtP6RgpWoletseo8c4WlvUxC8elqurHcaIFQyjabZYeUslsXKTfZtNU214XVemWllh9SEaur5FYsG0gmaYb9u3pmMFsni1GEIR+fmqX8atN1lwlrmAvtmH9Q38m3hr4o1SczBTC2+RkLMI/aEJeewe4qq0PJ6k7lRf3X4FohUyj+ei90CpG09lJHtJXQMmEX86bPXak+fC68rH2rH+xpW6QetEy6yNKSlRn4uzqus67EMWw1ERL5EeVgvNEOwM14Q+VsgpM9wmGG4NUfFhqWqcuhSEG5zlCA2gTRg9CdqChHK2tEINLRv5SH5dLXMR3RhSNiaUEHWSC6HPGD3dq/OFgTROLyIO2KVMa7dSV5VwNgpqJQwJ7fJdqN/9oc5PwPLXUOPae9Qlc6qvpi0Gp70WK157skU0dFRxCF53bId5jLpvh7egNuf1sHyNmULvXXhzdpTLtQRRNNFy+TEdHa1sRLZmSTJWT8joZSsAS4q06CdLMgt210Q+vsJq9WrLcjH8RqV3EbfFqBDOwFWEhHIgAzVLVAlHtVLdzpQBDMer7iFRQ7QFvWmI7umrs8rkLC2STyUaEBVUJahRyucXiw5Q06VJQb2q1z4V9nU/KqGVXrVcb8wIPehapElBBlkFKUWLDeFtHOpcfGRxlKg7jvpTkrSip7vRaAj9sVe1Cspuqo6yxT67JNXuJWZJPQX3JBSHCcW4fRxEDMoik6VKVZWWaMIcRPat/DBxRJmY8jabZ+v1ZYmmbIg6QxNqTm0h6gOlNCko1G8LBqu5tPDtIqGKR9nNgLdXnSoV1cb6YgJmHnLvaiJKqblewaTu28GhUndjVb96QyuxuG2Fpruv7HvT7c0uhjXOLkTuNIy7yIQavMWa3Q/Ui1rfkH1TsJTtlaps1Nmp6VLQharo4SYPThusW6jJrCGe9CTq1xX1hCKKw0WYtiAfI6CgfihHDUFdjihoo3gz/mg6oBWVmqh2Am5FTBO4ZTUXnYne9iaLpO6ucYjU9Q3n+puPSI+6lqMfai5vYkz5+9pamvYJhjTmgtjHcQVKQZVe1MdHTrUGx0fo1/l2N3oq5Ci16WnXpAnSBJCl9u2AxeMkVUoNIeo8R4nyOUYCfa0htUWkUzrLxzpr2G68zgZ1VTYW+VOh4UU5eKtS205GmlWjq4jS6lW76E3q7hqHTV3/7TgoSqPRojdqZIbV5c8jlJ+tUmIM8jYQrLDLpbX1Ip7JER4CIliPk8cQ8WEI1eJAFM3iRpSpanXEFmWUfCSho7dgrqku7WYetPVyOUC1qUXVL2nT8uq2C938mA4001lOyakCLUHbsyTIoYdTyaNMPQOXfgg5ZT6amElb6ELagmpad2rqLtfRw6FRV25wn6hrxuGbT+0vtra8ZQ1c3mq2vhlv3Z4a6tZuEzGKMDILBcytcFZWDjDx6mr8WrwGYepy0fdgb2GsCmgBVVGhqIWg1tZPAtKOP9SZYdCabtA9GlVtdEDN0UrbliYgwLTCHKR4uGQ1CKcaM0ILivTijjH4dFBUxzG2ytgE9CpGbBLUPDl1Hj3sN3UtEBUroO6i/1U+uBTy6mn/3eP6ZVrX3BPYlGG1LS++dOaDTBDirR4LweTXvuzfJSoPTsNQJizGjR4TJIrbzFYwdJwn5tsxyurpV9ULv6EKH7t13fotmEAlmJ2eEgXQlHOG4VuRYSegq/SHtlh+t7SkY7QFt5mwwndBAz5OStCDnlNb76z75CnjULB+C4VeEYR6ZmQd3euVDaGS5l4cWewndc3uO4e2snjp2pPn7Pu0jYwuPmjvD9cF515R1+oprmbl1499hjlCb0RqqxkhWmYqkcbswCBYSkEhzA4hwccZrUTxYVAXF8dHuFpON4Cf1AkfhH0N/ybb2mN/1Tj8vcQ+VTsoHAB1m3DU0iSZiTlKiFH998ots7/U3DVqc+W35hSi43u11Yzntz+pWqL0AwIurtuRql4XF1FOgxICDASzkGf/CLZtzfvX9Nxgv6nrhPRxnGqYnmnc9qQSewX7S1C4VmJjrW8VMCPk+B8E2x26Lxh5j2cCrgyusozsURdHVzQMm8SWicQ07OtaV8AizShl6FOlwve09gTFz9sOM0SFtNXxGoF3Fy2/HRCXjkXLiAfM49FpUjexA+zzNlWhIokSOY+JQZ7Wrbbk7BXW9P0hLW5hrKhL2Fyj5d1SJfovmQGsIXvU1V5uUjexa+yz1+0sG7ucaprK3JHVVmVjjj0Bqq7bZwcDa+ZVVrmXz90FUbWrLN7C4atf0J84COWDgN4BJki2Z0su79Rf/RjW+jYxTziAgHnPIWfuBDbTJ+F/2tNXoU4F282+/PDdWuXK30JgeMtHi5ZfeEZqdjgQ6MmQUdcfn+qNha9M/92mRGImDJG6AKIWfwsDr//s+6OLD775/AUi5NFzF64/ft/LX32P89b+2hh0hbeFwGMvP1bvvf/QkyEi5BA+Tn0ylEjMiIFSF9giWQwkAH71dPeah735OPGFIQhMpn7LxgrNvEzdEzzwwNc/csftH7vrzhA+ljf+EoldYZgBc+cwLQF1YSli/GweAvnH8h4VaXiLc1Yp4/zBUFetaKaYTCcSu8VAqRv70rZefeOps/ao1neSw81Kgs8sce3Nx5WlssQtxROJoWKwa93itWzFC3Xj60EiqkQ0xvESRduf9iy8PbjdqURi/zBM6paAE9rCw7Wg7iRv8cb2c+pPLDS8TWebOAoYLHUNoq79ghzrWELiSSFItj96YH+4CE30bZGbSBwBDDRgFurzoeXF375yaVJWFi85aXGz4WnT5SaOCAa71kX8zUp3oz1C2seaj7M1Lz3mbRVvF9edSAwSw/W6TktjYHG9UwhcX5PUx469Sd3E8DFo6oqrntiKjaGZSBwdDHqtm0gcXyR1E4lBIqmbSAwSSd1EYpBI6iYSg0RSN5EYJJK6icQgkdRNJAaJpG4iMUgkdROJQSKpm0gMEkndRGKQSOomEoNEUjeRGCSSuonEIJHUTSQGiaRuIjFIJHUTiUEiqZtIDBJJ3URikEjqJhKDRFI3kRgkkrqJxCCR1E0kBomkbiIxSCR1E4lBIqmbSAwSSd1EYpBI6iYSg0RSN5EYJJK6icQgkdRNJAaJpG4iMUgkdROJQSKpm0gMEBsb/w8o9q6fJfSWJAAAAABJRU5ErkJggg==;" vertex="1" parent="SIxx5Mf0WEB-HI0rlTFU-66">
          <mxGeometry x="260" y="23.660000000000025" width="124.15" height="60.52" as="geometry" />
        </mxCell>
        <mxCell id="SIxx5Mf0WEB-HI0rlTFU-33" value="Data Factory" style="text;html=1;strokeColor=none;fillColor=none;align=center;verticalAlign=middle;whiteSpace=wrap;rounded=0;fontStyle=0" vertex="1" parent="SIxx5Mf0WEB-HI0rlTFU-66">
          <mxGeometry x="40" y="70" width="60" height="30" as="geometry" />
        </mxCell>
        <mxCell id="SIxx5Mf0WEB-HI0rlTFU-35" value="Databricks&amp;nbsp;" style="text;html=1;strokeColor=none;fillColor=none;align=center;verticalAlign=middle;whiteSpace=wrap;rounded=0;fontStyle=0" vertex="1" parent="SIxx5Mf0WEB-HI0rlTFU-66">
          <mxGeometry x="170" y="70" width="60" height="30" as="geometry" />
        </mxCell>
        <mxCell id="SIxx5Mf0WEB-HI0rlTFU-28" value="Process" style="text;html=1;strokeColor=none;fillColor=none;align=center;verticalAlign=middle;whiteSpace=wrap;rounded=0;fontStyle=1" vertex="1" parent="SIxx5Mf0WEB-HI0rlTFU-66">
          <mxGeometry x="174.00000000000003" width="60" height="30" as="geometry" />
        </mxCell>
        <mxCell id="SIxx5Mf0WEB-HI0rlTFU-78" value="" style="shape=flexArrow;endArrow=classic;html=1;rounded=0;endWidth=13;endSize=6.56;width=4;strokeColor=#0000CC;" edge="1" parent="1">
          <mxGeometry width="50" height="50" relative="1" as="geometry">
            <mxPoint x="267" y="416" as="sourcePoint" />
            <mxPoint x="267" y="386" as="targetPoint" />
          </mxGeometry>
        </mxCell>
        <mxCell id="SIxx5Mf0WEB-HI0rlTFU-82" value="" style="shape=flexArrow;endArrow=classic;html=1;rounded=0;endWidth=13;endSize=6.56;width=4;strokeColor=#0000CC;" edge="1" parent="1">
          <mxGeometry width="50" height="50" relative="1" as="geometry">
            <mxPoint x="384.5" y="387" as="sourcePoint" />
            <mxPoint x="385" y="417" as="targetPoint" />
          </mxGeometry>
        </mxCell>
        <mxCell id="SIxx5Mf0WEB-HI0rlTFU-83" value="" style="shape=flexArrow;endArrow=classic;html=1;rounded=0;endWidth=13;endSize=6.56;width=4;strokeColor=#0000CC;" edge="1" parent="1">
          <mxGeometry width="50" height="50" relative="1" as="geometry">
            <mxPoint x="526" y="416" as="sourcePoint" />
            <mxPoint x="526" y="386" as="targetPoint" />
          </mxGeometry>
        </mxCell>
      </root>
    </mxGraphModel>
  </diagram>
</mxfile>
